# xmcd CD database file
#
# Track frame offsets:
#	150
#	24205
#	41915
#	56877
#	75053
#	92822
#	120361
#	150877
#	168332
#	194878
#	204126
#	230311
#	251766
#
# Disc length: 3544 seconds
#
# Revision: 0
# Processed by: cddbd v1.5.2PL0 Copyright (c) Steve Scherf et al.
# Submitted via: CDex 1.51
#
DISCID=970dd60d
DTITLE=Till Bronner - The Christmas Album
DYEAR=2007
DGENRE=Jazz
TTITLE0=We Wish You A Merry Christmas Joy To The World
TTITLE1=White Christmas
TTITLE2=Santa Claus Is Coming To Town feat. The New York Voices
TTITLE3=Last Christmas
TTITLE4=Silent Night
TTITLE5=What Are You Doing New Year's Eve feat. Frank McComb
TTITLE6=Better Than Christmas feat. Yvonne Catterfeld
TTITLE7=Notes On Snow feat. Chris Botti and Dominic Miller
TTITLE8=Winter Wonderland feat. Stevie Woods
TTITLE9=Moon River feat. Frank Chastenier
TTITLE10=Nature Boy feat. Kim Sanders and Don Grusin
TTITLE11=Christmas Is Never feat. Curtis Stigers
TTITLE12=Auld Lang Syne
EXTD=YEAR: 2007
EXTT0=
EXTT1=
EXTT2=
EXTT3=
EXTT4=
EXTT5=
EXTT6=
EXTT7=
EXTT8=
EXTT9=
EXTT10=
EXTT11=
EXTT12=
PLAYORDER=
